<?xml version="1.0" encoding="UTF-8" standalone="no"?>
<!-- Created with Inkscape (http://www.inkscape.org/) -->
<svg
   xmlns:dc="http://purl.org/dc/elements/1.1/"
   xmlns:cc="http://creativecommons.org/ns#"
   xmlns:rdf="http://www.w3.org/1999/02/22-rdf-syntax-ns#"
   xmlns:svg="http://www.w3.org/2000/svg"
   xmlns="http://www.w3.org/2000/svg"
   xmlns:sodipodi="http://sodipodi.sourceforge.net/DTD/sodipodi-0.dtd"
   xmlns:inkscape="http://www.inkscape.org/namespaces/inkscape"
   width="744.09448819"
   height="1052.3622047"
   id="svg2"
   sodipodi:version="0.32"
   inkscape:version="0.46"
   sodipodi:docname="logo.svg"
   inkscape:output_extension="org.inkscape.output.svg.inkscape">
  <defs
     id="defs4">
    <inkscape:perspective
       sodipodi:type="inkscape:persp3d"
       inkscape:vp_x="0 : 526.18109 : 1"
       inkscape:vp_y="0 : 1000 : 0"
       inkscape:vp_z="744.09448 : 526.18109 : 1"
       inkscape:persp3d-origin="372.04724 : 350.78739 : 1"
       id="perspective10" />
    <inkscape:perspective
       id="perspective3265"
       inkscape:persp3d-origin="372.04724 : 350.78739 : 1"
       inkscape:vp_z="744.09448 : 526.18109 : 1"
       inkscape:vp_y="0 : 1000 : 0"
       inkscape:vp_x="0 : 526.18109 : 1"
       sodipodi:type="inkscape:persp3d" />
  </defs>
  <sodipodi:namedview
     id="base"
     pagecolor="#ffffff"
     bordercolor="#666666"
     borderopacity="1.0"
     inkscape:pageopacity="0.0"
     inkscape:pageshadow="2"
     inkscape:zoom="0.48272354"
     inkscape:cx="372.04724"
     inkscape:cy="526.18109"
     inkscape:document-units="px"
     inkscape:current-layer="layer1"
     showgrid="false"
     inkscape:window-width="1280"
     inkscape:window-height="722"
     inkscape:window-x="0"
     inkscape:window-y="27" />
  <metadata
     id="metadata7">
    <rdf:RDF>
      <cc:Work
         rdf:about="">
        <dc:format>image/svg+xml</dc:format>
        <dc:type
           rdf:resource="http://purl.org/dc/dcmitype/StillImage" />
      </cc:Work>
    </rdf:RDF>
  </metadata>
  <g
     inkscape:label="Livello 1"
     inkscape:groupmode="layer"
     id="layer1">
    <path
       style="fill:#000000;fill-rule:evenodd;stroke:#000000;stroke-width:1px;stroke-linecap:butt;stroke-linejoin:miter;stroke-opacity:1;fill-opacity:0.1882353"
       d="M 173.27239,383.30717 L 172.15451,381.63034 L 165.44719,383.30717 L 161.53459,375.48196 L 171.03662,372.12831 L 169.35979,362.62627 L 159.85776,360.94944 L 159.85776,352.00635 L 168.80085,352.56529 L 170.47768,341.38643 L 161.53459,338.59171 L 163.77036,330.20757 L 172.15451,331.8844 L 176.62605,322.9413 L 168.80085,316.79293 L 172.15451,310.08561 L 181.0976,314.55716 L 188.36386,306.73195 L 180.53865,297.78886 L 188.36386,292.19943 L 194.51223,299.46569 L 202.89638,292.75837 L 196.74801,283.81528 L 205.13216,278.78479 L 212.39842,287.72788 L 221.34151,283.81528 L 217.98785,274.31325 L 226.372,270.95959 L 230.84354,280.46162 L 240.34558,279.90268 L 241.46346,269.28276 L 249.84761,269.28276 L 251.52444,279.34373 L 260.46753,281.02056 L 263.26225,270.95959 L 272.76428,273.7543 L 270.52851,283.81528 L 278.91266,288.28683 L 286.73786,278.78479 L 292.32729,283.81528 L 287.29681,291.64048 L 296.2399,297.78886 L 304.0651,291.64048 L 309.65453,297.22992 L 302.38827,306.17301 L 309.65453,314.55716 L 318.03868,308.40878 L 323.06917,316.79293 L 314.68502,321.26447 L 318.03868,330.76651 L 329.77649,328.53074 L 330.89438,337.47383 L 321.39234,340.26854 L 324.18706,350.88846 L 333.13015,352.00635 L 332.57121,360.3905 L 323.06917,360.94944 L 321.95128,366.53887"
       id="path3275" />
    <path
       style="fill:#000000;fill-rule:evenodd;stroke:#000000;stroke-width:1px;stroke-linecap:butt;stroke-linejoin:miter;stroke-opacity:1;fill-opacity:0.09411765"
       d="M 327.54072,365.97993 L 327.54072,362.06733 L 335.92486,362.06733 L 335.92486,350.88846 L 326.42283,347.5348 L 329.77649,339.7096 L 337.04275,340.82749 L 341.5143,331.8844 L 334.24803,326.29496 L 340.95535,317.91081 L 347.10373,324.05919 L 354.92893,316.23399 L 348.78056,308.96772 L 357.16471,302.26041 L 362.75414,310.64455 L 372.25617,306.73195 L 371.13829,297.78886 L 379.52243,296.11203 L 382.31715,305.05512 L 392.37813,306.17301 L 395.17284,296.11203 L 402.99805,298.90675 L 402.99805,307.29089 L 410.82325,312.32138 L 416.97163,303.93723 L 423.67895,309.52667 L 419.76634,317.91081 L 426.47366,323.50025 L 433.73992,319.0287 L 439.8883,326.29496 L 433.73992,333.00228 L 436.53464,341.94537 L 444.91879,341.38643 L 447.7135,348.65269 L 438.21147,351.44741 L 439.8883,354.24212"
       id="path3281" />
    <path
       style="opacity:1;fill:#000000;fill-opacity:0.1882353;fill-rule:nonzero;stroke:#000000;stroke-width:0.56100970999999999;stroke-opacity:1"
       d="M 386.76331,329.66267 C 374.30068,329.66267 364.16956,339.76253 364.16956,352.22517 C 364.16956,355.80517 365.02815,359.18553 366.51331,362.19392 L 408.76331,357.38142 C 409.14843,355.72975 409.32581,353.99359 409.32581,352.22517 C 409.32581,339.76254 399.22592,329.66268 386.76331,329.66267 z"
       id="path3295" />
    <path
       sodipodi:type="arc"
       style="opacity:1;fill:#000000;fill-opacity:0.09411765;fill-rule:nonzero;stroke:#000000;stroke-opacity:1"
       id="path3293"
       sodipodi:cx="248.17078"
       sodipodi:cy="360.3905"
       sodipodi:rx="40.243912"
       sodipodi:ry="40.243912"
       d="M 288.41469,360.3905 A 40.243912,40.243912 0 1 1 207.92686,360.3905 A 40.243912,40.243912 0 1 1 288.41469,360.3905 z"
       transform="translate(-1.6768296,-4.4715456)" />
    <path
       sodipodi:type="arc"
       style="opacity:1;fill:#ffffff;fill-opacity:1;stroke:#000000;stroke-opacity:1"
       id="path3161"
       sodipodi:cx="399.81476"
       sodipodi:cy="393.60004"
       sodipodi:rx="53.861057"
       sodipodi:ry="53.861057"
       d="M 453.67582,393.60004 A 53.861057,53.861057 0 1 1 345.9537,393.60004 A 53.861057,53.861057 0 1 1 453.67582,393.60004 z"
       transform="translate(-37.288424,49.717899)" />
    <path
       style="fill:none;fill-rule:evenodd;stroke:#000000;stroke-width:1px;stroke-linecap:butt;stroke-linejoin:miter;stroke-opacity:1"
       d="M 453.67582,352.16845 L 157.44001,385.31371"
       id="path3165" />
    <path
       sodipodi:type="arc"
       style="opacity:1;fill:#ffffff;fill-opacity:1;stroke:#000000;stroke-opacity:1;fill-rule:nonzero;"
       id="path3159"
       sodipodi:cx="203.01476"
       sodipodi:cy="389.45688"
       sodipodi:rx="72.505272"
       sodipodi:ry="72.505272"
       d="M 275.52003,389.45688 A 72.505272,72.505272 0 1 1 130.50948,389.45688 A 72.505272,72.505272 0 1 1 275.52003,389.45688 z"
       transform="translate(55.932636,45.57474)" />
    <path
       sodipodi:type="arc"
       style="opacity:1;fill:#ffffff;fill-opacity:1;stroke:#000000;stroke-opacity:1"
       id="path2387"
       sodipodi:cx="215.44423"
       sodipodi:cy="316.9516"
       sodipodi:rx="26.930529"
       sodipodi:ry="26.930529"
       d="M 242.37476,316.9516 A 26.930529,26.930529 0 1 1 188.5137,316.9516 A 26.930529,26.930529 0 1 1 242.37476,316.9516 z"
       transform="translate(99.435797,169.86949)" />
    <path
       style="fill:none;fill-rule:evenodd;stroke:#000000;stroke-width:0.90824974px;stroke-linecap:butt;stroke-linejoin:miter;stroke-opacity:1"
       d="M 176.03835,406.07538 C 216.22065,339.20393 259.82983,279.22093 327.35537,390.70476"
       id="path3379"
       sodipodi:nodetypes="cc" />
    <path
       sodipodi:type="arc"
       style="opacity:1;fill:#000000;fill-opacity:1;fill-rule:nonzero;stroke:#000000;stroke-opacity:1"
       id="path3403"
       sodipodi:cx="242.37476"
       sodipodi:cy="416.38739"
       sodipodi:rx="20.715792"
       sodipodi:ry="20.715792"
       d="M 263.09055,416.38739 A 20.715792,20.715792 0 1 1 221.65896,416.38739 A 20.715792,20.715792 0 1 1 263.09055,416.38739 z"
       transform="translate(14.501054,18.644212)" />
    <path
       sodipodi:type="arc"
       style="opacity:1;fill:#000000;fill-opacity:1;fill-rule:nonzero;stroke:#000000;stroke-opacity:1"
       id="path3407"
       sodipodi:cx="354.24002"
       sodipodi:cy="428.81686"
       sodipodi:rx="10.357896"
       sodipodi:ry="10.357896"
       d="M 364.59792,428.81686 A 10.357896,10.357896 0 1 1 343.88212,428.81686 A 10.357896,10.357896 0 1 1 364.59792,428.81686 z"
       transform="translate(12.429475,12.429475)" />
    <path
       style="fill:none;fill-rule:evenodd;stroke:#000000;stroke-width:1px;stroke-linecap:butt;stroke-linejoin:miter;stroke-opacity:1"
       d="M 192.65686,501.32214 C 204.95141,523.65745 169.12091,559.89555 418.45898,513.75162"
       id="path3409"
       sodipodi:nodetypes="cc" />
    <path
       style="fill:none;fill-rule:evenodd;stroke:#000000;stroke-width:1px;stroke-linecap:butt;stroke-linejoin:miter;stroke-opacity:1"
       d="M 343.88213,379.09898 C 411.40894,362.50608 418.39292,389.94434 426.74529,416.3874"
       id="path3381"
       sodipodi:nodetypes="cc" />
    <text
       xml:space="preserve"
       style="font-size:12px;font-style:normal;font-weight:normal;line-height:125%;fill:#ffffff;fill-opacity:1;stroke:none;stroke-width:1px;stroke-linecap:butt;stroke-linejoin:miter;stroke-opacity:1;font-family:Bitstream Vera Sans"
       x="243.05902"
       y="423.39612"
       id="text3192"
       sodipodi:linespacing="125%"><tspan
         sodipodi:role="line"
         id="tspan3194"
         x="243.05902"
         y="423.39612"
         style="font-size:2px;font-style:normal;font-variant:normal;font-weight:normal;font-stretch:normal;text-align:start;line-height:125%;writing-mode:lr-tb;text-anchor:start;font-family:Bitstream Vera Sans;-inkscape-font-specification:Bitstream Vera Sans">skypjack</tspan></text>
  </g>
</svg>
