<?xml version="1.0" encoding="UTF-8" standalone="no"?>
<!-- Created with Inkscape (http://www.inkscape.org/) -->
<svg
   xmlns:dc="http://purl.org/dc/elements/1.1/"
   xmlns:cc="http://creativecommons.org/ns#"
   xmlns:rdf="http://www.w3.org/1999/02/22-rdf-syntax-ns#"
   xmlns:svg="http://www.w3.org/2000/svg"
   xmlns="http://www.w3.org/2000/svg"
   xmlns:sodipodi="http://sodipodi.sourceforge.net/DTD/sodipodi-0.dtd"
   xmlns:inkscape="http://www.inkscape.org/namespaces/inkscape"
   width="310"
   height="275"
   id="svg2"
   sodipodi:version="0.32"
   inkscape:version="0.46"
   sodipodi:docname="oosmini.svg"
   inkscape:output_extension="org.inkscape.output.svg.inkscape"
   version="1.0">
  <defs
     id="defs4">
    <inkscape:perspective
       sodipodi:type="inkscape:persp3d"
       inkscape:vp_x="0 : 526.18109 : 1"
       inkscape:vp_y="0 : 1000 : 0"
       inkscape:vp_z="744.09448 : 526.18109 : 1"
       inkscape:persp3d-origin="372.04724 : 350.78739 : 1"
       id="perspective10" />
    <inkscape:perspective
       id="perspective3265"
       inkscape:persp3d-origin="372.04724 : 350.78739 : 1"
       inkscape:vp_z="744.09448 : 526.18109 : 1"
       inkscape:vp_y="0 : 1000 : 0"
       inkscape:vp_x="0 : 526.18109 : 1"
       sodipodi:type="inkscape:persp3d" />
  </defs>
  <sodipodi:namedview
     id="base"
     pagecolor="#ffffff"
     bordercolor="#666666"
     borderopacity="1.0"
     inkscape:pageopacity="0.0"
     inkscape:pageshadow="2"
     inkscape:zoom="1.8813147"
     inkscape:cx="155"
     inkscape:cy="136.625"
     inkscape:document-units="px"
     inkscape:current-layer="layer1"
     showgrid="false"
     inkscape:window-width="1280"
     inkscape:window-height="722"
     inkscape:window-x="0"
     inkscape:window-y="27" />
  <metadata
     id="metadata7">
    <rdf:RDF>
      <cc:Work
         rdf:about="">
        <dc:format>image/svg+xml</dc:format>
        <dc:type
           rdf:resource="http://purl.org/dc/dcmitype/StillImage" />
      </cc:Work>
    </rdf:RDF>
  </metadata>
  <g
     inkscape:label="Livello 1"
     inkscape:groupmode="layer"
     id="layer1"
     transform="translate(-156.94001,-268.78276)">
    <path
       style="fill:#000000;fill-opacity:0.18823529000000000;fill-rule:evenodd;stroke:#000000;stroke-width:1.5;stroke-linecap:butt;stroke-linejoin:miter;stroke-opacity:1;stroke-miterlimit:4;stroke-dasharray:none"
       d="M 179.65448,386.9202 L 178.5366,385.24337 L 171.82928,386.9202 L 167.91669,379.09499 L 177.41871,375.74134 L 175.74188,366.2393 L 166.23986,364.56247 L 166.23986,355.61938 L 175.18294,356.17832 L 176.85977,344.99946 L 167.91669,342.20474 L 170.15246,333.8206 L 178.5366,335.49743 L 183.00814,326.55433 L 175.18294,320.40596 L 178.5366,313.69864 L 187.47969,318.17019 L 194.74595,310.34498 L 186.92074,301.40189 L 194.74595,295.81246 L 200.89432,303.07872 L 209.27847,296.3714 L 203.1301,287.42831 L 211.51425,282.39782 L 218.78051,291.34091 L 227.7236,287.42831 L 224.36995,277.92628 L 232.7541,274.57262 L 237.22563,284.07465 L 246.72768,283.51571 L 247.84555,272.89579 L 256.22971,272.89579 L 257.90654,282.95676 L 266.84963,284.63359 L 269.64434,274.57262 L 279.14637,277.36733 L 276.9106,287.42831 L 285.29476,291.89986 L 293.11996,282.39782 L 298.70938,287.42831 L 293.6789,295.25351 L 302.62199,301.40189 L 310.44719,295.25351 L 316.03663,300.84295 L 308.77036,309.78604 L 316.03663,318.17019 L 324.42077,312.02181 L 329.45126,320.40596 L 321.06712,324.8775 L 324.42077,334.37954 L 336.15859,332.14377 L 337.27648,341.08686 L 327.77443,343.88157 L 330.56915,354.50149 L 339.51225,355.61938 L 338.95331,364.00353 L 329.45126,364.56247 L 328.33337,370.1519"
       id="path3275" />
    <path
       style="fill:#000000;fill-opacity:0.09411765000000000;fill-rule:evenodd;stroke:#000000;stroke-width:1.5;stroke-linecap:butt;stroke-linejoin:miter;stroke-opacity:1;stroke-miterlimit:4;stroke-dasharray:none"
       d="M 333.92282,369.59296 L 333.92282,365.68036 L 342.30696,365.68036 L 342.30696,354.50149 L 332.80492,351.14783 L 336.15859,343.32263 L 343.42485,344.44052 L 347.89639,335.49743 L 340.63013,329.90799 L 347.33745,321.52384 L 353.48582,327.67222 L 361.31102,319.84702 L 355.16265,312.58075 L 363.54681,305.87344 L 369.13623,314.25758 L 378.63826,310.34498 L 377.52038,301.40189 L 385.90452,299.72506 L 388.69925,308.66815 L 398.76022,309.78604 L 401.55494,299.72506 L 409.38014,302.51978 L 409.38014,310.90392 L 417.20534,315.93441 L 423.35372,307.55026 L 430.06104,313.1397 L 426.14844,321.52384 L 432.85575,327.11328 L 440.12201,322.64173 L 446.2704,329.90799 L 440.12201,336.61531 L 442.91674,345.5584 L 451.30088,344.99946 L 454.0956,352.26572 L 444.59357,355.06044 L 446.2704,357.85515"
       id="path3281" />
    <path
       style="fill:#000000;fill-opacity:0.18823529000000000;fill-rule:nonzero;stroke:#000000;stroke-width:1.5;stroke-opacity:1;stroke-miterlimit:4;stroke-dasharray:none"
       d="M 393.1454,333.2757 C 380.68277,333.2757 370.55165,343.37556 370.55165,355.8382 C 370.55165,359.4182 371.41024,362.79856 372.8954,365.80695 L 415.1454,360.99445 C 415.53053,359.34278 415.7079,357.60662 415.7079,355.8382 C 415.7079,343.37557 405.60801,333.27571 393.1454,333.2757 z"
       id="path3295" />
    <path
       sodipodi:type="arc"
       style="fill:#000000;fill-opacity:0.09411765000000000;fill-rule:nonzero;stroke:#000000;stroke-opacity:1;stroke-width:1.5;stroke-miterlimit:4;stroke-dasharray:none"
       id="path3293"
       sodipodi:cx="248.17078"
       sodipodi:cy="360.3905"
       sodipodi:rx="40.243912"
       sodipodi:ry="40.243912"
       d="M 288.41469,360.3905 A 40.243912,40.243912 0 1 1 207.92686,360.3905 A 40.243912,40.243912 0 1 1 288.41469,360.3905 z"
       transform="translate(4.705265,-0.8585085)" />
    <path
       sodipodi:type="arc"
       style="fill:#ffffff;fill-opacity:1;stroke:#000000;stroke-opacity:1;stroke-width:3;stroke-miterlimit:4;stroke-dasharray:none"
       id="path3161"
       sodipodi:cx="399.81476"
       sodipodi:cy="393.60004"
       sodipodi:rx="53.861057"
       sodipodi:ry="53.861057"
       d="M 453.67582,393.60004 A 53.861057,53.861057 0 1 1 345.9537,393.60004 A 53.861057,53.861057 0 1 1 453.67582,393.60004 z"
       transform="translate(-30.906325,53.330931)" />
    <path
       style="fill:none;fill-rule:evenodd;stroke:#000000;stroke-width:1.5;stroke-linecap:butt;stroke-linejoin:miter;stroke-opacity:1;stroke-miterlimit:4;stroke-dasharray:none"
       d="M 460.05791,355.78148 L 163.8221,388.92674"
       id="path3165" />
    <path
       sodipodi:type="arc"
       style="fill:#ffffff;fill-opacity:1;fill-rule:nonzero;stroke:#000000;stroke-opacity:1;stroke-width:3;stroke-miterlimit:4;stroke-dasharray:none"
       id="path3159"
       sodipodi:cx="203.01476"
       sodipodi:cy="389.45688"
       sodipodi:rx="72.505272"
       sodipodi:ry="72.505272"
       d="M 275.52003,389.45688 A 72.505272,72.505272 0 1 1 130.50948,389.45688 A 72.505272,72.505272 0 1 1 275.52003,389.45688 z"
       transform="translate(62.314735,49.187772)" />
    <path
       sodipodi:type="arc"
       style="fill:#ffffff;fill-opacity:1;stroke:#000000;stroke-opacity:1;stroke-width:3;stroke-miterlimit:4;stroke-dasharray:none"
       id="path2387"
       sodipodi:cx="215.44423"
       sodipodi:cy="316.9516"
       sodipodi:rx="26.930529"
       sodipodi:ry="26.930529"
       d="M 242.37476,316.9516 A 26.930529,26.930529 0 1 1 188.5137,316.9516 A 26.930529,26.930529 0 1 1 242.37476,316.9516 z"
       transform="translate(105.81789,173.48252)" />
    <path
       style="fill:none;fill-rule:evenodd;stroke:#000000;stroke-width:2;stroke-linecap:butt;stroke-linejoin:miter;stroke-opacity:1;stroke-miterlimit:4;stroke-dasharray:none"
       d="M 182.42045,409.68841 C 222.60274,342.81696 266.21193,282.83396 333.73746,394.31779"
       id="path3379"
       sodipodi:nodetypes="cc" />
    <path
       sodipodi:type="arc"
       style="fill:#000000;fill-opacity:1;fill-rule:nonzero;stroke:#000000;stroke-opacity:1"
       id="path3403"
       sodipodi:cx="242.37476"
       sodipodi:cy="416.38739"
       sodipodi:rx="20.715792"
       sodipodi:ry="20.715792"
       d="M 263.09055,416.38739 A 20.715792,20.715792 0 1 1 221.65896,416.38739 A 20.715792,20.715792 0 1 1 263.09055,416.38739 z"
       transform="translate(20.883145,22.257241)" />
    <path
       sodipodi:type="arc"
       style="fill:#000000;fill-opacity:1;fill-rule:nonzero;stroke:#000000;stroke-opacity:1"
       id="path3407"
       sodipodi:cx="354.24002"
       sodipodi:cy="428.81686"
       sodipodi:rx="10.357896"
       sodipodi:ry="10.357896"
       d="M 364.59792,428.81686 A 10.357896,10.357896 0 1 1 343.88212,428.81686 A 10.357896,10.357896 0 1 1 364.59792,428.81686 z"
       transform="translate(18.811565,16.042511)" />
    <path
       style="fill:none;fill-rule:evenodd;stroke:#000000;stroke-width:5;stroke-linecap:butt;stroke-linejoin:miter;stroke-opacity:1;stroke-miterlimit:4;stroke-dasharray:none"
       d="M 199.03895,504.93517 C 211.33351,527.27048 175.50301,563.50858 424.84107,517.36465"
       id="path3409"
       sodipodi:nodetypes="cc" />
    <path
       style="fill:none;fill-rule:evenodd;stroke:#000000;stroke-width:2;stroke-linecap:butt;stroke-linejoin:miter;stroke-opacity:1;stroke-miterlimit:4;stroke-dasharray:none"
       d="M 350.26423,382.71201 C 417.79103,366.11911 424.77501,393.55737 433.12739,420.00043"
       id="path3381"
       sodipodi:nodetypes="cc" />
    <text
       xml:space="preserve"
       style="font-size:12px;font-style:normal;font-weight:normal;line-height:125%;fill:#ffffff;fill-opacity:1;stroke:none;stroke-width:1px;stroke-linecap:butt;stroke-linejoin:miter;stroke-opacity:1;font-family:Bitstream Vera Sans"
       x="249.4411"
       y="427.00916"
       id="text3192"
       sodipodi:linespacing="125%"><tspan
         sodipodi:role="line"
         id="tspan3194"
         x="249.4411"
         y="427.00916"
         style="font-size:2px;font-style:normal;font-variant:normal;font-weight:normal;font-stretch:normal;text-align:start;line-height:125%;writing-mode:lr-tb;text-anchor:start;font-family:Bitstream Vera Sans;-inkscape-font-specification:Bitstream Vera Sans">skypjack</tspan></text>
  </g>
</svg>
